SplineFontDB: 3.2
FontName: Untitled1
FullName: Untitled1
FamilyName: Untitled1
Weight: Regular
Copyright: Copyright (c) 2022, Billy Messenger
UComments: "2022-10-15: Created with FontForge (http://fontforge.org)"
Version: 001.000
ItalicAngle: 0
UnderlinePosition: -100
UnderlineWidth: 50
Ascent: 800
Descent: 200
InvalidEm: 0
LayerCount: 2
Layer: 0 0 "Back" 1
Layer: 1 0 "Fore" 0
XUID: [1021 703 -1605407759 15405757]
StyleMap: 0x0000
FSType: 0
OS2Version: 0
OS2_WeightWidthSlopeOnly: 0
OS2_UseTypoMetrics: 1
CreationTime: 1665847731
ModificationTime: 1665852967
OS2TypoAscent: 0
OS2TypoAOffset: 1
OS2TypoDescent: 0
OS2TypoDOffset: 1
OS2TypoLinegap: 90
OS2WinAscent: 0
OS2WinAOffset: 1
OS2WinDescent: 0
OS2WinDOffset: 1
HheadAscent: 0
HheadAOffset: 1
HheadDescent: 0
HheadDOffset: 1
DEI: 91125
Encoding: ISO8859-1
UnicodeInterp: none
NameList: AGL For New Fonts
DisplaySize: -48
AntiAlias: 1
FitToEm: 0
WinInfo: 0 19 6
BeginChars: 256 28

StartChar: uni0001
Encoding: 1 1 0
Width: 1000
Flags: H
LayerCount: 2
Fore
SplineSet
274.983398438 291.047851562 m 2
 725.016601562 291.047851562 l 2
 756.5 291.047851562 782.71484375 264.833984375 782.71484375 233.349609375 c 2
 782.71484375 -42.28515625 l 1
 791.666992188 -42.28515625 l 2
 820.013671875 -42.28515625 842.28515625 -20.013671875 842.28515625 8.3330078125 c 2
 842.28515625 473.828125 l 2
 842.282226562 487.266601562 836.977539062 500.134765625 827.473632812 509.635742188 c 2
 709.635742188 627.473632812 l 2
 706.542508829 630.56781999 703.092367556 633.216907391 699.381835938 635.382847414 c 1
 699.381835938 449.983398438 l 2
 699.381835938 418.5 673.166992188 392.28515625 641.682617188 392.28515625 c 2
 358.317382812 392.28515625 l 2
 326.833007812 392.28515625 300.618164062 418.5 300.618164062 449.983398438 c 2
 300.618164062 642.28515625 l 1
 208.333007812 642.28515625 l 2
 179.986328125 642.28515625 157.71484375 620.013671875 157.71484375 591.666992188 c 2
 157.71484375 8.3330078125 l 2
 157.71484375 -20.013671875 179.986328125 -42.28515625 208.333007812 -42.28515625 c 2
 217.28515625 -42.28515625 l 1
 217.28515625 233.349609375 l 2
 217.28515625 264.833984375 243.5 291.047851562 274.983398438 291.047851562 c 2
633.952148438 642.28515625 m 1
 366.047851562 642.28515625 l 1
 366.047851562 457.71484375 l 1
 633.952148438 457.71484375 l 1
 633.952148438 642.28515625 l 1
282.71484375 -42.28515625 m 1
 717.28515625 -42.28515625 l 1
 717.28515625 225.618164062 l 1
 282.71484375 225.618164062 l 1
 282.71484375 -42.28515625 l 1
782.71484375 -107.71484375 m 1
 217.28515625 -107.71484375 l 1
 208.333007812 -107.71484375 l 2
 144.6328125 -107.71484375 92.28515625 -55.3671875 92.28515625 8.3330078125 c 2
 92.28515625 591.666992188 l 2
 92.28515625 655.3671875 144.6328125 707.71484375 208.333007812 707.71484375 c 2
 358.317382812 707.71484375 l 1
 641.682617188 707.71484375 l 1
 673.828125 707.71484375 l 2
 704.588867188 707.708007812 734.111328125 695.452148438 755.859375 673.698242188 c 2
 873.698242188 555.859375 l 2
 895.452148438 534.111328125 907.708007812 504.588867188 907.71484375 473.828125 c 2
 907.71484375 8.3330078125 l 2
 907.71484375 -55.3671875 855.3671875 -107.71484375 791.666992188 -107.71484375 c 2
 782.71484375 -107.71484375 l 1
EndSplineSet
EndChar

StartChar: uni0002
Encoding: 2 2 1
Width: 1000
Flags: H
LayerCount: 2
Fore
SplineSet
354.166992188 582.71484375 m 0
 363.188476562 582.71484375 371.365234375 579.037109375 377.278320312 573.112304688 c 0
 383.189453125 567.192382812 386.846679688 559.012695312 386.846679688 549.995117188 c 0
 386.846679688 540.977539062 383.189453125 532.807617188 377.278320312 526.887695312 c 2
 287.272460938 436.881835938 l 1
 625 436.881835938 l 2
 628.375 436.881835938 676.899414062 437.396484375 725.749023438 412.467773438 c 0
 774.59765625 387.538085938 824.381835938 331.294921875 824.381835938 237.5 c 0
 824.381835938 134.780273438 778.125 73.61328125 729.4921875 45.1982421875 c 0
 680.859375 16.7841796875 631.208007812 17.28515625 625 17.28515625 c 2
 291.666992188 17.28515625 l 2
 273.608398438 17.28515625 258.952148438 31.94140625 258.952148438 49.9931640625 c 0
 258.952148438 68.05859375 273.607421875 82.71484375 291.66015625 82.71484375 c 2
 625 82.71484375 l 2
 631.208007812 82.71484375 664.85546875 83.2158203125 696.452148438 101.676757812 c 0
 728.047851562 120.13671875 758.952148438 152.719726562 758.952148438 237.5 c 0
 758.952148438 310.372070312 728.759765625 337.461914062 695.963867188 354.19921875 c 0
 663.166992188 370.936523438 628.375 371.452148438 625 371.452148438 c 2
 287.272200608 371.452148438 l 1
 377.278320312 281.4453125 l 2
 383.189453125 275.526367188 386.846679688 267.346679688 386.846679688 258.329101562 c 0
 386.846679688 249.310546875 383.189453125 241.140625 377.278320312 235.221679688 c 0
 371.359375 229.310546875 363.1796875 225.653320312 354.162109375 225.653320312 c 0
 345.14453125 225.653320312 336.973632812 229.310546875 331.0546875 235.221679688 c 2
 186.140318777 380.136048411 l 2
 179.671048011 386.113209763 175.618164062 394.666934097 175.618164062 404.16015625 c 0
 175.618164062 413.66017617 179.671151939 422.217433518 186.139715535 428.196362306 c 2
 331.0546875 573.112304688 l 2
 336.96875 579.037109375 345.14453125 582.71484375 354.166992188 582.71484375 c 0
EndSplineSet
EndChar

StartChar: uni0003
Encoding: 3 3 2
Width: 1000
Flags: H
LayerCount: 2
Fore
SplineSet
622.721679688 573.112304688 m 0
 628.640625 579.022460938 636.8203125 582.6796875 645.837890625 582.6796875 c 0
 654.85546875 582.6796875 663.026367188 579.022460938 668.9453125 573.112304688 c 2
 813.852866017 428.203780804 l 2
 820.326105458 422.226074799 824.381835938 413.669406898 824.381835938 404.172851562 c 2
 824.381835938 404.16015625 l 2
 824.381835938 394.664200694 820.326178973 386.107845303 813.85389494 380.130262128 c 2
 668.9453125 235.221679688 l 2
 663.026367188 229.310546875 654.846679688 225.653320312 645.829101562 225.653320312 c 0
 636.810546875 225.653320312 628.640625 229.310546875 622.721679688 235.221679688 c 0
 616.810546875 241.140625 613.153320312 249.3203125 613.153320312 258.337890625 c 0
 613.153320312 267.35546875 616.810546875 275.526367188 622.721679688 281.4453125 c 2
 712.727799392 371.452148438 l 1
 375 371.452148438 l 2
 371.625 371.452148438 336.833007812 370.936523438 304.036132812 354.19921875 c 0
 271.240234375 337.461914062 241.047851562 310.372070312 241.047851562 237.5 c 0
 241.047851562 152.719726562 271.952148438 120.13671875 303.547851562 101.676757812 c 0
 335.14453125 83.2158203125 368.791992188 82.71484375 375 82.71484375 c 2
 708.333007812 82.71484375 l 2
 726.391601562 82.71484375 741.047851562 68.05859375 741.047851562 50.0068359375 c 2
 741.047851562 49.9931640625 l 2
 741.047851562 31.94140625 726.392578125 17.28515625 708.33984375 17.28515625 c 2
 375 17.28515625 l 2
 368.791992188 17.28515625 319.140625 16.7841796875 270.5078125 45.1982421875 c 0
 221.875 73.61328125 175.618164062 134.780273438 175.618164062 237.5 c 0
 175.618164062 331.294921875 225.40234375 387.538085938 274.250976562 412.467773438 c 0
 323.100585938 437.396484375 371.625 436.881835938 375 436.881835938 c 2
 712.727539062 436.881835938 l 1
 622.721679688 526.887695312 l 2
 616.810546875 532.807617188 613.153320312 540.987304688 613.153320312 550.004882812 c 0
 613.153320312 559.022460938 616.810546875 567.192382812 622.721679688 573.112304688 c 0
EndSplineSet
EndChar

StartChar: uni0004
Encoding: 4 4 3
Width: 1000
Flags: H
LayerCount: 2
Fore
SplineSet
604.166992188 228.547851562 m 0
 613.188476562 228.547851562 621.365234375 224.87109375 627.278320312 218.9453125 c 2
 730.531639124 115.691993688 l 2
 736.997449338 109.714829293 741.047851562 101.163166752 741.047851562 91.6728515625 c 2
 741.047851562 91.66015625 l 2
 741.047851562 82.1670914746 736.994933554 73.6130548803 730.526346973 67.635721973 c 2
 627.278320312 -35.6123046875 l 2
 621.359375 -41.5224609375 613.1796875 -45.1796875 604.162109375 -45.1796875 c 0
 595.14453125 -45.1796875 586.973632812 -41.5224609375 581.0546875 -35.6123046875 c 0
 575.143554688 -29.6923828125 571.486328125 -21.5126953125 571.486328125 -12.4951171875 c 0
 571.486328125 -3.4775390625 575.143554688 4.6923828125 581.0546875 10.6123046875 c 2
 629.39453125 58.9521484375 l 1
 333.333007812 58.9521484375 l 2
 292.063476562 58.9521484375 234.674804688 70.31640625 184.000976562 106.803710938 c 0
 133.327148438 143.290039062 92.28515625 207.58203125 92.28515625 300 c 0
 92.28515625 392.41796875 133.327148438 456.709960938 184.000976562 493.196289062 c 0
 234.674804688 529.68359375 292.063476562 541.047851562 333.333007812 541.047851562 c 2
 666.666992188 541.047851562 l 2
 707.936523438 541.047851562 765.325195312 529.68359375 815.999023438 493.196289062 c 0
 866.672851562 456.709960938 907.71484375 392.41796875 907.71484375 300 c 0
 907.71484375 230.962890625 885.356445312 177.151367188 852.294921875 139.599609375 c 0
 846.298828125 132.7734375 837.497070312 128.484375 827.70703125 128.484375 c 0
 819.4140625 128.484375 811.838867188 131.576171875 806.071289062 136.669921875 c 0
 799.268554688 142.665039062 794.99609375 151.452148438 794.99609375 161.22265625 c 0
 794.99609375 169.493164062 798.072265625 177.05078125 803.141601562 182.8125 c 0
 825.913085938 208.676757812 842.28515625 244.537109375 842.28515625 300 c 0
 842.28515625 374.248046875 813.87890625 414.123046875 777.750976562 440.13671875 c 0
 741.622070312 466.150390625 694.85546875 475.618164062 666.666992188 475.618164062 c 2
 333.333007812 475.618164062 l 2
 305.14453125 475.618164062 258.377929688 466.150390625 222.249023438 440.13671875 c 0
 186.12109375 414.123046875 157.71484375 374.248046875 157.71484375 300 c 0
 157.71484375 225.751953125 186.12109375 185.876953125 222.249023438 159.86328125 c 0
 258.377929688 133.849609375 305.14453125 124.381835938 333.333007812 124.381835938 c 2
 629.39453125 124.381835938 l 1
 581.0546875 172.721679688 l 2
 575.143554688 178.640625 571.486328125 186.8203125 571.486328125 195.837890625 c 0
 571.486328125 204.85546875 575.143554688 213.026367188 581.0546875 218.9453125 c 0
 586.96875 224.87109375 595.14453125 228.547851562 604.166992188 228.547851562 c 0
EndSplineSet
EndChar

StartChar: uni0005
Encoding: 5 5 4
Width: 1000
Flags: H
LayerCount: 2
Fore
SplineSet
473.958007812 582.71484375 m 0
 482.98046875 582.71484375 491.15625 579.037109375 497.0703125 573.112304688 c 0
 502.981445312 567.192382812 506.638671875 559.012695312 506.638671875 549.995117188 c 0
 506.638671875 540.977539062 502.981445312 532.807617188 497.0703125 526.887695312 c 2
 407.063736894 436.881835938 l 1
 619.791992188 436.881835938 l 2
 685.5078125 436.881835938 738.920898438 410.239257812 773.4375 370.231445312 c 0
 807.954101562 330.22265625 824.381835938 278.409179688 824.381835938 227.083007812 c 0
 824.381835938 175.7578125 807.954101562 123.943359375 773.4375 83.935546875 c 0
 738.920898438 43.927734375 685.5078125 17.28515625 619.791992188 17.28515625 c 2
 203.125 17.28515625 l 2
 185.06640625 17.28515625 170.41015625 31.94140625 170.41015625 49.9931640625 c 0
 170.41015625 68.05859375 185.06640625 82.71484375 203.118164062 82.71484375 c 2
 619.791992188 82.71484375 l 2
 668.658203125 82.71484375 701.18359375 100.34375 723.958007812 126.741210938 c 0
 746.733398438 153.139648438 758.952148438 189.8671875 758.952148438 227.083007812 c 0
 758.952148438 264.299804688 746.733398438 301.02734375 723.958007812 327.424804688 c 0
 701.18359375 353.823242188 668.658203125 371.452148438 619.791992188 371.452148438 c 2
 407.063476562 371.452148438 l 1
 497.0703125 281.4453125 l 2
 502.981445312 275.526367188 506.638671875 267.346679688 506.638671875 258.329101562 c 0
 506.638671875 249.310546875 502.981445312 241.140625 497.0703125 235.221679688 c 0
 491.151367188 229.310546875 482.971679688 225.653320312 473.954101562 225.653320312 c 0
 464.935546875 225.653320312 456.765625 229.310546875 450.846679688 235.221679688 c 2
 305.919469807 380.147919077 l 2
 299.457677476 386.124532099 295.41015625 394.673216831 295.41015625 404.16015625 c 0
 295.41015625 413.655142558 299.458850291 422.20836508 305.921287094 428.186854892 c 0
 318.202162 440.466927406 450.851335188 573.107649291 450.846679688 573.112304688 c 0
 456.759765625 579.037109375 464.936523438 582.71484375 473.958007812 582.71484375 c 0
208.327148438 541.047851562 m 0
 226.391601562 541.047851562 241.047851562 526.392578125 241.047851562 508.33984375 c 2
 241.047851562 300 l 2
 241.047851562 281.94140625 226.392578125 267.28515625 208.33984375 267.28515625 c 0
 190.274414062 267.28515625 175.618164062 281.94140625 175.618164062 299.993164062 c 2
 175.618164062 508.333007812 l 2
 175.618164062 526.391601562 190.274414062 541.047851562 208.327148438 541.047851562 c 0
EndSplineSet
EndChar

StartChar: uni0006
Encoding: 6 6 5
Width: 1000
Flags: H
LayerCount: 2
Fore
SplineSet
282.71484375 575.87890625 m 1
 282.71484375 24.12109375 l 1
 748.291015625 300 l 1
 282.71484375 575.87890625 l 1
304.443359375 639.111328125 m 2
 792.887695312 349.641601562 l 2
 829.287109375 328.043945312 829.287109375 271.956054688 792.887695312 250.358398438 c 2
 304.443359375 -39.111328125 l 2
 267.368164062 -61.0927734375 217.29296875 -32.5712890625 217.28515625 10.5302734375 c 2
 217.28515625 589.469726562 l 2
 217.29296875 632.571289062 267.368164062 661.092773438 304.443359375 639.111328125 c 2
EndSplineSet
EndChar

StartChar: uni0007
Encoding: 7 7 6
Width: 1000
Flags: H
LayerCount: 2
Fore
SplineSet
616.047851562 558.952148438 m 1
 616.047851562 41.0478515625 l 1
 717.28515625 41.0478515625 l 1
 717.28515625 558.952148438 l 1
 616.047851562 558.952148438 l 1
282.71484375 558.952148438 m 1
 282.71484375 41.0478515625 l 1
 383.952148438 41.0478515625 l 1
 383.952148438 558.952148438 l 1
 282.71484375 558.952148438 l 1
608.317382812 624.381835938 m 2
 725.016601562 624.381835938 l 2
 756.5 624.381835938 782.71484375 598.166992188 782.71484375 566.682617188 c 2
 782.71484375 33.3173828125 l 2
 782.71484375 1.8330078125 756.5 -24.3818359375 725.016601562 -24.3818359375 c 2
 608.317382812 -24.3818359375 l 2
 576.833007812 -24.3818359375 550.618164062 1.8330078125 550.618164062 33.3173828125 c 2
 550.618164062 566.682617188 l 2
 550.618164062 598.166992188 576.833007812 624.381835938 608.317382812 624.381835938 c 2
274.983398438 624.381835938 m 2
 391.682617188 624.381835938 l 2
 423.166992188 624.381835938 449.381835938 598.166992188 449.381835938 566.682617188 c 2
 449.381835938 33.3173828125 l 2
 449.381835938 1.8330078125 423.166992188 -24.3818359375 391.682617188 -24.3818359375 c 2
 274.983398438 -24.3818359375 l 2
 243.5 -24.3818359375 217.28515625 1.8330078125 217.28515625 33.3173828125 c 2
 217.28515625 566.682617188 l 2
 217.28515625 598.166992188 243.5 624.381835938 274.983398438 624.381835938 c 2
EndSplineSet
EndChar

StartChar: uni0008
Encoding: 8 8 7
Width: 1000
Flags: H
LayerCount: 2
Fore
SplineSet
220.051757812 579.948242188 m 1
 220.051757812 20.0517578125 l 1
 779.948242188 20.0517578125 l 1
 779.948242188 579.948242188 l 1
 220.051757812 579.948242188 l 1
207.600585938 646.6796875 m 2
 792.399414062 646.6796875 l 2
 821.94921875 646.6796875 846.6796875 621.94921875 846.6796875 592.399414062 c 2
 846.6796875 7.6005859375 l 2
 846.6796875 -21.94921875 821.94921875 -46.6796875 792.399414062 -46.6796875 c 2
 207.600585938 -46.6796875 l 2
 178.05078125 -46.6796875 153.3203125 -21.94921875 153.3203125 7.6005859375 c 2
 153.3203125 592.399414062 l 2
 153.3203125 621.94921875 178.05078125 646.6796875 207.600585938 646.6796875 c 2
EndSplineSet
EndChar

StartChar: uni0009
Encoding: 9 9 8
Width: 1000
Flags: H
LayerCount: 2
Fore
SplineSet
500 580.110351562 m 0
 344.918945312 580.110351562 219.889648438 455.081054688 219.889648438 300 c 0
 219.889648438 144.918945312 344.918945312 19.8896484375 500 19.8896484375 c 0
 655.081054688 19.8896484375 780.110351562 144.918945312 780.110351562 300 c 0
 780.110351562 455.081054688 655.081054688 580.110351562 500 580.110351562 c 0
500 646.760742188 m 0
 691.107421875 646.760742188 846.760742188 491.107421875 846.760742188 300 c 0
 846.760742188 108.892578125 691.107421875 -46.7607421875 500 -46.7607421875 c 0
 308.892578125 -46.7607421875 153.239257812 108.892578125 153.239257812 300 c 0
 153.239257812 491.107421875 308.892578125 646.760742188 500 646.760742188 c 0
EndSplineSet
EndChar

StartChar: uni000A
Encoding: 10 10 9
Width: 1000
Flags: H
LayerCount: 2
Fore
SplineSet
124.993164062 41.0478515625 m 2
 875 41.0478515625 l 2
 893.05859375 41.0478515625 907.71484375 26.392578125 907.71484375 8.33984375 c 0
 907.71484375 -9.7255859375 893.05859375 -24.3818359375 875.006835938 -24.3818359375 c 2
 125 -24.3818359375 l 2
 106.94140625 -24.3818359375 92.28515625 -9.7255859375 92.28515625 8.3271484375 c 0
 92.28515625 26.3916015625 106.94140625 41.0478515625 124.993164062 41.0478515625 c 2
124.993164062 332.71484375 m 2
 875 332.71484375 l 2
 893.05859375 332.71484375 907.71484375 318.05859375 907.71484375 300.006835938 c 0
 907.71484375 281.94140625 893.05859375 267.28515625 875.006835938 267.28515625 c 2
 125 267.28515625 l 2
 106.94140625 267.28515625 92.28515625 281.94140625 92.28515625 299.993164062 c 0
 92.28515625 318.05859375 106.94140625 332.71484375 124.993164062 332.71484375 c 2
124.993164062 624.381835938 m 2
 875 624.381835938 l 2
 893.05859375 624.381835938 907.71484375 609.725585938 907.71484375 591.672851562 c 0
 907.71484375 573.608398438 893.05859375 558.952148438 875.006835938 558.952148438 c 2
 125 558.952148438 l 2
 106.94140625 558.952148438 92.28515625 573.607421875 92.28515625 591.66015625 c 0
 92.28515625 609.725585938 106.94140625 624.381835938 124.993164062 624.381835938 c 2
EndSplineSet
EndChar

StartChar: uni000B
Encoding: 11 11 10
Width: 1000
Flags: H
LayerCount: 2
Fore
SplineSet
220.866210938 116.243164062 m 1
 220.866210938 116.243164062 779.133789062 116.244140625 779.133789062 116.243164062 c 1
 779.166992188 116.244140625 l 2
 797.563476562 116.244140625 812.5 101.307617188 812.5 82.9111328125 c 2
 812.5 82.8779296875 l 1
 812.500976562 82.8447265625 l 2
 812.500976562 64.4482421875 797.564453125 49.51171875 779.166992188 49.51171875 c 2
 779.133789062 49.51171875 l 1
 779.133789062 49.51171875 220.866210938 49.5107421875 220.866210938 49.51171875 c 1
 220.833007812 49.5107421875 l 2
 202.436523438 49.5107421875 187.5 64.447265625 187.5 82.8447265625 c 2
 187.5 82.8779296875 l 1
 187.499023438 82.91015625 l 2
 187.499023438 101.307617188 202.435546875 116.243164062 220.833007812 116.243164062 c 2
 220.866210938 116.243164062 l 1
220.866210938 333.366210938 m 1
 779.133789062 333.366210938 l 1
 779.166992188 333.366210938 l 2
 797.563476562 333.366210938 812.5 318.430664062 812.5 300.033203125 c 2
 812.5 300 l 1
 812.500976562 299.967773438 l 2
 812.500976562 281.5703125 797.564453125 266.633789062 779.166992188 266.633789062 c 2
 779.133789062 266.633789062 l 1
 220.866210938 266.633789062 l 1
 220.833007812 266.633789062 l 2
 202.436523438 266.633789062 187.5 281.569335938 187.5 299.966796875 c 2
 187.5 300 l 1
 187.499023438 300.032226562 l 2
 187.499023438 318.4296875 202.435546875 333.366210938 220.833007812 333.366210938 c 2
 220.866210938 333.366210938 l 1
220.866210938 550.48828125 m 1
 220.866210938 550.48828125 779.133789062 550.489257812 779.133789062 550.48828125 c 1
 779.166992188 550.489257812 l 2
 797.563476562 550.489257812 812.5 535.552734375 812.5 517.155273438 c 2
 812.5 517.122070312 l 1
 812.500976562 517.08984375 l 2
 812.500976562 498.692382812 797.564453125 483.756835938 779.166992188 483.756835938 c 2
 779.133789062 483.756835938 l 1
 779.133789062 483.756835938 220.866210938 483.755859375 220.866210938 483.756835938 c 1
 220.833007812 483.755859375 l 2
 202.436523438 483.755859375 187.5 498.692382812 187.5 517.088867188 c 2
 187.5 517.122070312 l 1
 187.499023438 517.155273438 l 2
 187.499023438 535.551757812 202.435546875 550.48828125 220.833007812 550.48828125 c 2
 220.866210938 550.48828125 l 1
EndSplineSet
EndChar

StartChar: uni000C
Encoding: 12 12 11
Width: 1000
Flags: H
LayerCount: 2
Fore
SplineSet
116.047851562 308.952148438 m 1
 116.047851562 -0.6181640625 l 1
 883.952148438 -0.6181640625 l 1
 883.952148438 308.952148438 l 1
 116.047851562 308.952148438 l 1
116.047851562 600.618164062 m 1
 116.047851562 374.381835938 l 1
 883.954101562 374.381835938 l 1
 883.954101562 475.618164062 l 1
 530.112304688 475.618164062 l 2
 516.365234375 475.6171875 503.043945312 480.518554688 492.596679688 489.453125 c 0
 492.568359375 489.48046875 492.541015625 489.506835938 492.512695312 489.534179688 c 2
 362.874023438 600.618164062 l 1
 116.047851562 600.618164062 l 1
108.317382812 666.047851562 m 2
 365.72265625 666.047851562 l 2
 379.469726562 666.048828125 392.791015625 661.1484375 403.239257812 652.213867188 c 0
 403.266601562 652.186523438 403.29296875 652.159179688 403.3203125 652.131835938 c 2
 532.958984375 541.047851562 l 1
 891.682617188 541.047851562 l 2
 923.166992188 541.047851562 949.381835938 514.833984375 949.381835938 483.349609375 c 2
 949.381835938 341.666992188 l 1
 949.381835938 -8.349609375 l 2
 949.381835938 -39.833984375 923.166992188 -66.0478515625 891.682617188 -66.0478515625 c 2
 108.317382812 -66.0478515625 l 2
 76.8330078125 -66.0478515625 50.6181640625 -39.833984375 50.6181640625 -8.349609375 c 2
 50.6181640625 341.666992188 l 1
 50.6181640625 608.349609375 l 2
 50.6181640625 639.833984375 76.8330078125 666.047851562 108.317382812 666.047851562 c 2
EndSplineSet
EndChar

StartChar: uni000E
Encoding: 14 14 12
Width: 1000
Flags: H
LayerCount: 2
Fore
SplineSet
607.096679688 671.418945312 m 0
 561.359375 664.78125 516.06640625 644.842773438 486.083984375 614.860351562 c 0
 425.407226562 554.1484375 418.12890625 449.294921875 449.21875 369.990234375 c 0
 449.637695312 368.387695312 449.942382812 366.71484375 450.114257812 365.026367188 c 0
 450.822265625 362.640625 451.271484375 360.118164062 451.416015625 357.5390625 c 2
 451.416015625 357.498046875 l 1
 451.416015625 357.456054688 l 2
 451.26171875 356.581054688 451.068359375 355.701171875 450.846679688 354.8515625 c 0
 450.651367188 351.504882812 449.940429688 348.251953125 448.811523438 345.249023438 c 0
 447.950195312 343.69921875 446.974609375 342.237304688 445.881835938 340.854492188 c 0
 444.766601562 338.720703125 443.434570312 336.739257812 441.89453125 334.9140625 c 2
 441.40625 334.504882812 l 1
 147.297851562 40.3154296875 l 2
 127.2265625 20.2666015625 127.2265625 -11.2490234375 147.297851562 -31.298828125 c 0
 167.321289062 -51.31640625 198.786132812 -51.27734375 218.831054688 -31.298828125 c 2
 513.427734375 263.297851562 l 2
 519.1328125 268.142578125 526.546875 271.06640625 534.610351562 271.06640625 c 0
 538.39453125 271.06640625 542.028320312 270.422851562 545.41015625 269.23828125 c 0
 546.432617188 269.75 547.50390625 270.217773438 548.583984375 270.622070312 c 0
 627.895507812 239.53125 732.657226562 246.849609375 793.375976562 307.568359375 c 0
 823.354492188 337.530273438 843.374023438 382.8515625 850.016601562 428.581054688 c 0
 853.853515625 454.999023438 844.518554688 474.42578125 839.924804688 497.265625 c 1
 757.161132812 414.420898438 l 2
 751.8984375 409.161132812 744.817382812 405.6875 736.979492188 404.98046875 c 2
 736.979492188 404.98046875 607.372070312 393.23046875 607.340820312 393.26171875 c 0
 606.345703125 393.170898438 605.369140625 393.092773438 604.350585938 393.092773438 c 0
 586.296875 393.092773438 571.639648438 407.75 571.639648438 425.803710938 c 0
 571.639648438 426.822265625 571.686523438 427.830078125 571.77734375 428.825195312 c 2
 583.577148438 558.381835938 l 2
 584.28515625 566.219726562 587.758789062 573.301757812 593.017578125 578.564453125 c 2
 675.862304688 661.409179688 l 1
 653.000976562 666.013671875 633.548828125 675.258789062 607.096679688 671.418945312 c 0
683.186523438 736.604492188 m 0
 710.732421875 732.493164062 736.782226562 723.899414062 759.684570312 710.15625 c 0
 769.20703125 704.434570312 775.553710938 694.020507812 775.553710938 682.112304688 c 0
 775.553710938 673.076171875 771.881835938 664.890625 765.950195312 658.967773438 c 2
 647.705078125 540.72265625 l 1
 640.543945312 461.946289062 l 1
 719.23828125 469.108398438 l 1
 837.565429688 587.434570312 l 2
 843.483398438 593.336914062 851.631835938 597.017578125 860.641601562 597.017578125 c 0
 872.529296875 597.017578125 882.944335938 590.663085938 888.671875 581.168945312 c 0
 916.1875 535.361328125 923.091796875 476.899414062 914.713867188 419.221679688 c 0
 906.334960938 361.544921875 882.120117188 303.759765625 839.599609375 261.262695312 c 0
 761.17578125 182.838867188 643.53515625 173.678710938 546.793945312 204.133789062 c 1
 265.13671875 -77.6044921875 l 2
 220.096679688 -122.630859375 146.114257812 -122.630859375 101.07421875 -77.6044921875 c 0
 55.9716796875 -32.5517578125 55.9716796875 41.568359375 101.07421875 86.62109375 c 2
 382.649414062 368.196289062 l 1
 352.163085938 464.95703125 361.373046875 582.6328125 439.778320312 661.083984375 c 0
 482.295898438 703.6015625 540.057617188 727.826171875 597.737304688 736.198242188 c 0
 626.577148438 740.383789062 655.640625 740.716796875 683.186523438 736.604492188 c 0
EndSplineSet
EndChar

StartChar: uni000F
Encoding: 15 15 13
Width: 1000
Flags: H
LayerCount: 2
Fore
SplineSet
833.327148438 416.047851562 m 0
 851.391601562 416.047851562 866.047851562 401.392578125 866.047851562 383.33984375 c 2
 866.047851562 216.666992188 l 2
 866.047851562 198.608398438 851.392578125 183.952148438 833.33984375 183.952148438 c 0
 815.274414062 183.952148438 800.618164062 198.607421875 800.618164062 216.66015625 c 2
 800.618164062 383.333007812 l 2
 800.618164062 401.391601562 815.274414062 416.047851562 833.327148438 416.047851562 c 0
166.66015625 416.047851562 m 0
 184.725585938 416.047851562 199.381835938 401.392578125 199.381835938 383.33984375 c 2
 199.381835938 216.666992188 l 2
 199.381835938 198.608398438 184.725585938 183.952148438 166.672851562 183.952148438 c 0
 148.608398438 183.952148438 133.952148438 198.607421875 133.952148438 216.66015625 c 2
 133.952148438 383.333007812 l 2
 133.952148438 401.391601562 148.607421875 416.047851562 166.66015625 416.047851562 c 0
333.327148438 457.71484375 m 0
 351.391601562 457.71484375 366.047851562 443.05859375 366.047851562 425.006835938 c 2
 366.047851562 175 l 2
 366.047851562 156.94140625 351.392578125 142.28515625 333.33984375 142.28515625 c 0
 315.274414062 142.28515625 300.618164062 156.94140625 300.618164062 174.993164062 c 2
 300.618164062 425 l 2
 300.618164062 443.05859375 315.274414062 457.71484375 333.327148438 457.71484375 c 0
666.66015625 541.047851562 m 0
 684.725585938 541.047851562 699.381835938 526.392578125 699.381835938 508.33984375 c 2
 699.381835938 91.6669921875 l 2
 699.381835938 73.6083984375 684.725585938 58.9521484375 666.672851562 58.9521484375 c 0
 648.608398438 58.9521484375 633.952148438 73.607421875 633.952148438 91.66015625 c 2
 633.952148438 508.333007812 l 2
 633.952148438 526.391601562 648.607421875 541.047851562 666.66015625 541.047851562 c 0
499.993164062 666.047851562 m 0
 518.05859375 666.047851562 532.71484375 651.392578125 532.71484375 633.33984375 c 2
 532.71484375 -33.3330078125 l 2
 532.71484375 -51.3916015625 518.05859375 -66.0478515625 500.006835938 -66.0478515625 c 0
 481.94140625 -66.0478515625 467.28515625 -51.392578125 467.28515625 -33.33984375 c 2
 467.28515625 633.333007812 l 2
 467.28515625 651.391601562 481.94140625 666.047851562 499.993164062 666.047851562 c 0
EndSplineSet
EndChar

StartChar: uni0010
Encoding: 16 16 14
Width: 1000
Flags: H
LayerCount: 2
Fore
SplineSet
907.71484375 650.016601562 m 6
 907.71484375 -50.0166015625 l 6
 907.71484375 -81.5 881.5 -107.71484375 850.016601562 -107.71484375 c 6
 149.983398438 -107.71484375 l 6
 118.5 -107.71484375 92.28515625 -81.5 92.28515625 -50.0166015625 c 6
 92.28515625 650.016601562 l 6
 92.28515625 681.5 118.5 707.71484375 149.983398438 707.71484375 c 6
 850.016601562 707.71484375 l 6
 881.5 707.71484375 907.71484375 681.5 907.71484375 650.016601562 c 6
338.669921875 266.633789062 m 5
 328.31640625 266.633789062 l 6
 309.975585938 266.6484375 295.122070312 282.3203125 295.151367188 301.627929688 c 6
 295.151367188 642.28515625 l 5
 157.71484375 642.28515625 l 5
 157.71484375 -42.28515625 l 5
 338.669921875 -42.28515625 l 5
 338.669921875 266.633789062 l 5
405.319936143 266.633789062 m 5
 405.319936143 134.290885439 405.320077479 4.87393941038 405.320077479 -42.28515625 c 5
 588.263697632 -42.28515625 l 5
 588.263697632 4.87393940939 588.264027343 134.290885438 588.264027343 266.633789062 c 1
 577.909179688 266.633789062 l 6
 559.568359375 266.6484375 544.715820312 282.3203125 544.745117188 301.627929688 c 6
 544.745117188 642.28515625 l 5
 455.254882812 642.28515625 l 5
 455.254882812 301.627929688 l 6
 455.284179688 282.3203125 440.431640625 266.6484375 422.090820312 266.633789062 c 6
 405.319936143 266.633789062 l 5
654.9140625 266.633789062 m 1
 654.9140625 -42.28515625 l 5
 842.28515625 -42.28515625 l 5
 842.28515625 642.28515625 l 5
 704.848632812 642.28515625 l 5
 704.848632812 301.627929688 l 6
 704.877929688 282.3203125 690.024414062 266.6484375 671.68359375 266.633789062 c 2
 654.9140625 266.633789062 l 1
EndSplineSet
EndChar

StartChar: uni0011
Encoding: 17 17 15
Width: 1000
Flags: H
LayerCount: 2
Fore
SplineSet
375 707.71484375 m 0
 389.432617188 707.71484375 401.681640625 698.326171875 406.005859375 685.334960938 c 2
 625 28.3525390625 l 1
 625 28.3525390625 718.986328125 310.330078125 718.994140625 310.334960938 c 0
 723.318359375 323.326171875 735.567382812 332.701171875 750 332.71484375 c 2
 875 332.71484375 l 2
 893.05859375 332.71484375 907.71484375 318.05859375 907.71484375 300.006835938 c 2
 907.71484375 299.993164062 l 2
 907.71484375 281.94140625 893.05859375 267.28515625 875.006835938 267.28515625 c 2
 773.600585938 267.28515625 l 1
 773.600585938 267.28515625 656.0234375 -85.3349609375 656.005859375 -85.3349609375 c 0
 651.651367188 -98.287109375 639.420898438 -107.627929688 625.008789062 -107.627929688 c 0
 610.596679688 -107.627929688 598.348632812 -98.287109375 593.994140625 -85.3349609375 c 2
 375 571.647460938 l 1
 375 571.647460938 281.013671875 289.669921875 281.005859375 289.665039062 c 0
 276.681640625 276.673828125 264.432617188 267.298828125 250 267.28515625 c 2
 125 267.28515625 l 2
 106.94140625 267.28515625 92.28515625 281.94140625 92.28515625 299.993164062 c 2
 92.28515625 300.006835938 l 2
 92.28515625 318.05859375 106.94140625 332.71484375 124.993164062 332.71484375 c 2
 226.399414062 332.71484375 l 1
 226.399414062 332.71484375 343.986328125 685.330078125 343.994140625 685.334960938 c 0
 348.318359375 698.326171875 360.567382812 707.71484375 375 707.71484375 c 0
EndSplineSet
EndChar

StartChar: uni0012
Encoding: 18 18 16
Width: 1000
Flags: H
LayerCount: 2
Fore
SplineSet
544.596679688 457.551757812 m 0
 553.498046875 456.756835938 561.400390625 452.409179688 566.813476562 445.915039062 c 2
 645.833007812 351.106445312 l 1
 645.833007812 351.106445312 724.864257812 445.884765625 724.853515625 445.915039062 c 0
 730.85546875 453.130859375 739.91015625 457.697265625 750.020507812 457.697265625 c 0
 757.961914062 457.697265625 765.24609375 454.860351562 770.915039062 450.146484375 c 0
 778.130859375 444.14453125 782.697265625 435.08984375 782.697265625 424.979492188 c 0
 782.697265625 417.038085938 779.860351562 409.75390625 775.146484375 404.084960938 c 2
 688.395507812 300 l 1
 775.146484375 195.915039062 l 2
 779.860351562 190.24609375 782.727539062 182.951171875 782.727539062 175.009765625 c 0
 782.727539062 164.900390625 778.130859375 155.85546875 770.915039062 149.853515625 c 0
 765.24609375 145.139648438 757.951171875 142.272460938 750.009765625 142.272460938 c 0
 739.900390625 142.272460938 730.85546875 146.869140625 724.853515625 154.084960938 c 2
 645.833007812 248.893554688 l 1
 645.833007812 248.893554688 566.802734375 154.115234375 566.813476562 154.084960938 c 0
 560.811523438 146.869140625 551.755859375 142.302734375 541.646484375 142.302734375 c 0
 533.705078125 142.302734375 526.419921875 145.139648438 520.751953125 149.853515625 c 0
 513.536132812 155.85546875 508.969726562 164.91015625 508.969726562 175.020507812 c 0
 508.969726562 182.961914062 511.805664062 190.24609375 516.520507812 195.915039062 c 2
 603.271484375 300 l 1
 516.520507812 404.084960938 l 2
 511.805664062 409.75390625 508.939453125 417.048828125 508.939453125 424.990234375 c 0
 508.939453125 435.099609375 513.536132812 444.14453125 520.751953125 450.146484375 c 0
 526.416992188 454.84765625 533.678710938 457.686523438 541.608398438 457.686523438 c 0
 542.616210938 457.686523438 543.612304688 457.641601562 544.596679688 457.551757812 c 0
250 457.71484375 m 2
 458.333007812 457.71484375 l 2
 476.391601562 457.71484375 491.047851562 443.05859375 491.047851562 425.006835938 c 2
 491.047851562 424.993164062 l 2
 491.047851562 406.94140625 476.392578125 392.28515625 458.33984375 392.28515625 c 2
 282.71484375 392.28515625 l 1
 282.71484375 332.71484375 l 1
 398.762695312 332.71484375 l 2
 416.821289062 332.71484375 431.477539062 318.05859375 431.477539062 300.006835938 c 2
 431.477539062 299.993164062 l 2
 431.477539062 281.94140625 416.822265625 267.28515625 398.76953125 267.28515625 c 2
 282.71484375 267.28515625 l 1
 282.71484375 175 l 2
 282.71484375 156.94140625 268.05859375 142.28515625 250.006835938 142.28515625 c 2
 249.993164062 142.28515625 l 2
 231.94140625 142.28515625 217.28515625 156.94140625 217.28515625 174.993164062 c 2
 217.28515625 300 l 1
 217.28515625 425 l 2
 217.28515625 443.053710938 231.946289062 457.71484375 250 457.71484375 c 2
333.333007812 642.28515625 m 2
 212.939453125 642.28515625 116.047851562 545.39453125 116.047851562 425 c 2
 116.047851562 175 l 2
 116.047851562 54.60546875 212.939453125 -42.28515625 333.333007812 -42.28515625 c 2
 666.666992188 -42.28515625 l 2
 787.060546875 -42.28515625 883.952148438 54.60546875 883.952148438 175 c 2
 883.952148438 425 l 2
 883.952148438 545.39453125 787.060546875 642.28515625 666.666992188 642.28515625 c 2
 333.333007812 642.28515625 l 2
333.333007812 707.71484375 m 2
 666.666992188 707.71484375 l 2
 822.415039062 707.71484375 949.381835938 580.748046875 949.381835938 425 c 2
 949.381835938 175 l 2
 949.381835938 19.251953125 822.415039062 -107.71484375 666.666992188 -107.71484375 c 2
 333.333007812 -107.71484375 l 2
 177.584960938 -107.71484375 50.6181640625 19.251953125 50.6181640625 175 c 2
 50.6181640625 425 l 2
 50.6181640625 580.748046875 177.584960938 707.71484375 333.333007812 707.71484375 c 2
EndSplineSet
EndChar

StartChar: uni0013
Encoding: 19 19 17
Width: 1000
Flags: H
LayerCount: 2
Fore
SplineSet
689.5625 346.965820312 m 0
 689.5625 373.330078125 710.934570312 394.702148438 737.298828125 394.702148438 c 0
 763.663085938 394.702148438 785.03515625 373.330078125 785.03515625 346.965820312 c 0
 785.03515625 320.6015625 763.663085938 299.229492188 737.298828125 299.229492188 c 0
 710.934570312 299.229492188 689.5625 320.6015625 689.5625 346.965820312 c 0
596.419921875 460.296875 m 0
 596.419921875 486.661132812 617.79296875 508.033203125 644.15625 508.033203125 c 0
 670.520507812 508.033203125 691.893554688 486.661132812 691.893554688 460.296875 c 0
 691.893554688 433.932617188 670.520507812 412.560546875 644.15625 412.560546875 c 0
 617.79296875 412.560546875 596.419921875 433.932617188 596.419921875 460.296875 c 0
452.529296875 504.4921875 m 0
 452.529296875 530.856445312 473.90234375 552.228515625 500.265625 552.228515625 c 0
 526.629882812 552.228515625 548.002929688 530.856445312 548.002929688 504.4921875 c 0
 548.002929688 478.127929688 526.629882812 456.755859375 500.265625 456.755859375 c 0
 473.90234375 456.755859375 452.529296875 478.127929688 452.529296875 504.4921875 c 0
308.106445312 460.296875 m 0
 308.106445312 486.661132812 329.479492188 508.033203125 355.84375 508.033203125 c 0
 382.20703125 508.033203125 403.580078125 486.661132812 403.580078125 460.296875 c 0
 403.580078125 433.932617188 382.20703125 412.560546875 355.84375 412.560546875 c 0
 329.479492188 412.560546875 308.106445312 433.932617188 308.106445312 460.296875 c 0
215.2890625 346.965820312 m 0
 215.2890625 373.330078125 236.661132812 394.702148438 263.025390625 394.702148438 c 0
 289.389648438 394.702148438 310.76171875 373.330078125 310.76171875 346.965820312 c 0
 310.76171875 320.6015625 289.389648438 299.229492188 263.025390625 299.229492188 c 0
 236.661132812 299.229492188 215.2890625 320.6015625 215.2890625 346.965820312 c 0
500.043945312 662.129882812 m 0
 294.697265625 662.129882812 128.950195312 496.471679688 128.950195312 291.125 c 0
 128.950195312 132.951171875 229.865234375 -5.255859375 378.151367188 -57.2412109375 c 1
 455.237304688 -3.982421875 548.403320312 -3.810546875 622.291992188 -57.0634765625 c 1
 770.326171875 -4.9501953125 871.049804688 133.114257812 871.049804688 291.125 c 0
 871.049804688 496.471679688 705.390625 662.129882812 500.043945312 662.129882812 c 0
500.043945312 734.928710938 m 0
 744.696289062 734.928710938 943.758789062 535.776367188 943.758789062 291.125 c 0
 943.758789062 96.6357421875 816.821289062 -75.4892578125 630.9921875 -132.879882812 c 0
 621.573242188 -136.541992188 608.771484375 -135.510742188 595.5703125 -124.801757812 c 0
 536.107421875 -69.8740234375 468.91015625 -69.373046875 403.541992188 -125.689453125 c 0
 397.921875 -130.952148438 383.27734375 -138.64453125 369.095703125 -132.880859375 c 0
 183.267578125 -75.490234375 56.2412109375 96.6357421875 56.2412109375 291.125 c 0
 56.2412109375 535.776367188 255.392578125 734.928710938 500.043945312 734.928710938 c 0
EndSplineSet
EndChar

StartChar: uni0014
Encoding: 20 20 18
Width: 1000
Flags: H
LayerCount: 2
Fore
SplineSet
187.336914062 71.240234375 m 0
 173.772460938 71.240234375 160.655273438 66.5205078125 151.774414062 58.6259765625 c 0
 142.892578125 50.732421875 136.71875 40.22265625 136.71875 20.6220703125 c 0
 136.71875 1.021484375 142.892578125 -9.5703125 151.774414062 -17.4638671875 c 0
 160.655273438 -25.3583984375 173.772460938 -29.9970703125 187.336914062 -29.9970703125 c 0
 200.90234375 -29.9970703125 214.01953125 -25.3583984375 222.900390625 -17.4638671875 c 0
 231.78125 -9.5703125 237.956054688 1.021484375 237.956054688 20.6220703125 c 0
 237.956054688 40.22265625 231.78125 50.732421875 222.900390625 58.6259765625 c 0
 214.01953125 66.5205078125 200.90234375 71.240234375 187.336914062 71.240234375 c 0
812.663085938 629.997070312 m 0
 799.09765625 629.997070312 785.98046875 625.358398438 777.099609375 617.463867188 c 0
 768.21875 609.5703125 762.043945312 598.978515625 762.043945312 579.377929688 c 0
 762.043945312 559.77734375 768.21875 549.267578125 777.099609375 541.374023438 c 0
 785.98046875 533.479492188 799.09765625 528.759765625 812.663085938 528.759765625 c 0
 826.227539062 528.759765625 839.344726562 533.479492188 848.225585938 541.374023438 c 0
 857.107421875 549.267578125 863.28125 559.77734375 863.28125 579.377929688 c 0
 863.28125 598.978515625 857.107421875 609.5703125 848.225585938 617.463867188 c 0
 839.344726562 625.358398438 826.227539062 629.997070312 812.663085938 629.997070312 c 0
812.663085938 695.426757812 m 0
 840.764648438 695.426757812 869.314453125 686.256835938 891.682617188 666.374023438 c 0
 914.051757812 646.490234375 928.7109375 615.333007812 928.7109375 579.377929688 c 0
 928.7109375 543.423828125 914.051757812 512.34765625 891.682617188 492.463867188 c 0
 869.314453125 472.581054688 840.764648438 463.330078125 812.663085938 463.330078125 c 0
 784.560546875 463.330078125 756.01171875 472.581054688 733.642578125 492.463867188 c 0
 719.899414062 504.6796875 710.735351562 522 704.426757812 541.2109375 c 1
 650.017578125 534.779296875 615.822265625 513.561523438 591.715820312 474.8046875 c 0
 563.534179688 429.497070312 547.569335938 362.6875 531.901367188 292.838867188 c 0
 516.233398438 222.989257812 500.854492188 150.075195312 463.8671875 90.6083984375 c 0
 431.185546875 38.0654296875 373.833007812 3.240234375 298.014648438 -5.3388671875 c 1
 292.6953125 -29.658203125 282.856445312 -51.7080078125 266.357421875 -66.3740234375 c 0
 243.98828125 -86.2568359375 215.439453125 -95.4267578125 187.336914062 -95.4267578125 c 0
 159.235351562 -95.4267578125 130.685546875 -86.2568359375 108.317382812 -66.3740234375 c 0
 85.9482421875 -46.490234375 71.2890625 -15.3330078125 71.2890625 20.6220703125 c 0
 71.2890625 56.576171875 85.9482421875 87.65234375 108.317382812 107.536132812 c 0
 130.685546875 127.418945312 159.235351562 136.669921875 187.336914062 136.669921875 c 0
 215.439453125 136.669921875 243.98828125 127.418945312 266.357421875 107.536132812 c 0
 280.100585938 95.3203125 289.264648438 78 295.573242188 58.7890625 c 1
 349.982421875 65.220703125 384.177734375 86.4384765625 408.284179688 125.1953125 c 0
 436.465820312 170.502929688 452.430664062 237.3125 468.098632812 307.161132812 c 0
 483.766601562 377.010742188 499.145507812 449.924804688 536.1328125 509.391601562 c 0
 568.814453125 561.934570312 626.166992188 596.759765625 701.985351562 605.338867188 c 1
 707.3046875 629.658203125 717.143554688 651.708007812 733.642578125 666.374023438 c 0
 756.01171875 686.256835938 784.560546875 695.426757812 812.663085938 695.426757812 c 0
EndSplineSet
EndChar

StartChar: uni0015
Encoding: 21 21 19
Width: 1000
Flags: H
LayerCount: 2
Fore
SplineSet
250 100.618164062 m 2
 221.653320312 100.618164062 199.381835938 78.3466796875 199.381835938 50 c 2
 199.381835938 8.3330078125 l 2
 199.381835938 -20.013671875 221.653320312 -42.28515625 250 -42.28515625 c 2
 291.666992188 -42.28515625 l 2
 320.013671875 -42.28515625 342.28515625 -20.013671875 342.28515625 8.3330078125 c 2
 342.28515625 100.618164062 l 1
 250 100.618164062 l 2
708.333007812 183.952148438 m 2
 679.986328125 183.952148438 657.71484375 161.6796875 657.71484375 133.333007812 c 2
 657.71484375 91.6669921875 l 2
 657.71484375 63.3203125 679.986328125 41.0478515625 708.333007812 41.0478515625 c 2
 750 41.0478515625 l 2
 778.346679688 41.0478515625 800.618164062 63.3203125 800.618164062 91.6669921875 c 2
 800.618164062 183.952148438 l 1
 708.333007812 183.952148438 l 2
827.473632812 707.145507812 m 2
 829.384765625 707.493164062 831.325195312 707.673828125 833.336914062 707.673828125 c 0
 851.377929688 707.673828125 866.028320312 693.037109375 866.047851562 675 c 2
 866.047851562 216.666992188 l 1
 866.047851562 91.6669921875 l 2
 866.047851562 27.9658203125 813.700195312 -24.3818359375 750 -24.3818359375 c 2
 708.333007812 -24.3818359375 l 2
 644.6328125 -24.3818359375 592.28515625 27.9658203125 592.28515625 91.6669921875 c 2
 592.28515625 133.333007812 l 2
 592.28515625 197.034179688 644.6328125 249.381835938 708.333007812 249.381835938 c 2
 800.618164062 249.381835938 l 1
 800.618164062 635.856445312 l 1
 407.71484375 564.404296875 l 1
 407.71484375 133.333007812 l 1
 407.71484375 8.3330078125 l 2
 407.71484375 -55.3671875 355.3671875 -107.71484375 291.666992188 -107.71484375 c 2
 250 -107.71484375 l 2
 186.299804688 -107.71484375 133.952148438 -55.3671875 133.952148438 8.3330078125 c 2
 133.952148438 50 l 2
 133.952148438 113.700195312 186.299804688 166.047851562 250 166.047851562 c 2
 342.28515625 166.047851562 l 1
 342.28515625 591.666992188 l 2
 342.303710938 607.694335938 353.903320312 621.0390625 369.140625 623.811523438 c 2
 827.473632812 707.145507812 l 2
EndSplineSet
EndChar

StartChar: uni0016
Encoding: 22 22 20
Width: 1000
Flags: H
LayerCount: 2
Fore
SplineSet
664.387695312 510.612304688 m 0
 670.307617188 516.522460938 678.487304688 520.1796875 687.504882812 520.1796875 c 0
 696.522460938 520.1796875 704.692382812 516.522460938 710.612304688 510.612304688 c 2
 710.612304688 510.612304688 782.71484375 438.083007812 782.71484375 320.833007812 c 0
 782.71484375 203.583007812 710.612304688 131.0546875 710.612304688 131.0546875 c 2
 704.692382812 125.143554688 696.512695312 121.486328125 687.495117188 121.486328125 c 0
 678.477539062 121.486328125 670.307617188 125.143554688 664.387695312 131.0546875 c 0
 658.477539062 136.973632812 654.8203125 145.153320312 654.8203125 154.170898438 c 0
 654.8203125 163.189453125 658.477539062 171.359375 664.387695312 177.278320312 c 2
 664.387695312 177.278320312 717.28515625 229.75 717.28515625 320.833007812 c 0
 717.28515625 411.916992188 664.387695312 464.387695312 664.387695312 464.387695312 c 2
 658.477539062 470.307617188 654.8203125 478.487304688 654.8203125 487.504882812 c 0
 654.8203125 496.522460938 658.477539062 504.692382812 664.387695312 510.612304688 c 0
789.387695312 635.612304688 m 0
 795.307617188 641.522460938 803.487304688 645.1796875 812.504882812 645.1796875 c 0
 821.522460938 645.1796875 829.692382812 641.522460938 835.612304688 635.612304688 c 2
 835.612304688 635.612304688 949.381835938 520.447265625 949.381835938 320.833007812 c 0
 949.381835938 121.219726562 835.612304688 6.0546875 835.612304688 6.0546875 c 2
 829.692382812 0.1435546875 821.512695312 -3.513671875 812.495117188 -3.513671875 c 0
 803.477539062 -3.513671875 795.307617188 0.1435546875 789.387695312 6.0546875 c 0
 783.477539062 11.9736328125 779.8203125 20.1533203125 779.8203125 29.1708984375 c 0
 779.8203125 38.189453125 783.477539062 46.359375 789.387695312 52.2783203125 c 2
 789.387695312 52.2783203125 883.952148438 145.447265625 883.952148438 320.833007812 c 0
 883.952148438 496.21875 789.387695312 589.387695312 789.387695312 589.387695312 c 2
 783.477539062 595.307617188 779.8203125 603.487304688 779.8203125 612.504882812 c 0
 779.8203125 621.522460938 783.477539062 629.692382812 789.387695312 635.612304688 c 0
453.369140625 521.272460938 m 2
 278.645507812 404.817382812 l 2
 266.424804688 396.668945312 252.07421875 392.282226562 237.385742188 392.28515625 c 2
 125 392.28515625 l 2
 119.665039062 392.28515625 116.047851562 388.66796875 116.047851562 383.333007812 c 2
 116.047851562 216.666992188 l 2
 116.047851562 211.33203125 119.665039062 207.71484375 125 207.71484375 c 2
 237.385742188 207.71484375 l 2
 252.0390625 207.724609375 266.357421875 203.37109375 278.564453125 195.263671875 c 1
 278.645507812 195.263671875 l 1
 453.369140625 78.80859375 l 2
 460.83984375 73.82421875 467.286132812 77.2333984375 467.28515625 86.2138671875 c 2
 467.28515625 513.786132812 l 2
 467.3046875 522.783203125 460.853515625 526.266601562 453.369140625 521.272460938 c 2
455.403320312 587.59765625 m 0
 494.678710938 588.165039062 532.756835938 556.983398438 532.71484375 513.786132812 c 2
 532.71484375 513.704101562 l 1
 532.71484375 86.2958984375 l 2
 532.723632812 28.69921875 464.985351562 -7.6005859375 417.073242188 24.365234375 c 2
 242.350585938 140.8203125 l 2
 240.889648438 141.771484375 239.211914062 142.288085938 237.467773438 142.28515625 c 2
 237.385742188 142.28515625 l 1
 125 142.28515625 l 2
 84.3115234375 142.28515625 50.6181640625 175.977539062 50.6181640625 216.666992188 c 2
 50.6181640625 383.333007812 l 2
 50.6181640625 424.022460938 84.3115234375 457.71484375 125 457.71484375 c 2
 237.385742188 457.71484375 l 2
 239.158203125 457.71484375 240.875976562 458.196289062 242.350585938 459.1796875 c 2
 417.073242188 575.715820312 l 2
 429.063476562 583.715820312 442.303710938 587.408203125 455.403320312 587.59765625 c 0
EndSplineSet
EndChar

StartChar: uni0017
Encoding: 23 23 21
Width: 1000
Flags: H
LayerCount: 2
Fore
SplineSet
536.702148438 521.272460938 m 2
 361.979492188 404.817382812 l 2
 349.758789062 396.668945312 335.408203125 392.282226562 320.719726562 392.28515625 c 2
 208.333007812 392.28515625 l 2
 202.998046875 392.28515625 199.381835938 388.66796875 199.381835938 383.333007812 c 2
 199.381835938 216.666992188 l 2
 199.381835938 211.33203125 202.998046875 207.71484375 208.333007812 207.71484375 c 2
 320.719726562 207.71484375 l 2
 335.372070312 207.724609375 349.690429688 203.37109375 361.897460938 195.263671875 c 1
 361.979492188 195.263671875 l 1
 536.702148438 78.80859375 l 2
 544.172851562 73.82421875 550.620117188 77.2333984375 550.618164062 86.2138671875 c 2
 550.618164062 513.786132812 l 2
 550.637695312 522.783203125 544.186523438 526.266601562 536.702148438 521.272460938 c 2
538.737304688 587.59765625 m 0
 578.012695312 588.165039062 616.08984375 556.983398438 616.047851562 513.786132812 c 2
 616.047851562 513.704101562 l 1
 616.047851562 86.2958984375 l 2
 616.056640625 28.69921875 548.318359375 -7.6005859375 500.407226562 24.365234375 c 2
 325.68359375 140.8203125 l 2
 324.22265625 141.771484375 322.545898438 142.288085938 320.80078125 142.28515625 c 2
 320.719726562 142.28515625 l 1
 208.333007812 142.28515625 l 2
 167.64453125 142.28515625 133.952148438 175.977539062 133.952148438 216.666992188 c 2
 133.952148438 383.333007812 l 2
 133.952148438 424.022460938 167.64453125 457.71484375 208.333007812 457.71484375 c 2
 320.719726562 457.71484375 l 2
 322.4921875 457.71484375 324.208984375 458.196289062 325.68359375 459.1796875 c 2
 500.407226562 575.715820312 l 2
 512.397460938 583.715820312 525.63671875 587.408203125 538.737304688 587.59765625 c 0
747.721679688 510.612304688 m 0
 753.640625 516.522460938 761.8203125 520.1796875 770.837890625 520.1796875 c 0
 779.85546875 520.1796875 788.026367188 516.522460938 793.9453125 510.612304688 c 2
 793.9453125 510.612304688 866.047851562 438.083007812 866.047851562 320.833007812 c 0
 866.047851562 203.583007812 793.9453125 131.0546875 793.9453125 131.0546875 c 2
 788.026367188 125.143554688 779.846679688 121.486328125 770.829101562 121.486328125 c 0
 761.810546875 121.486328125 753.640625 125.143554688 747.721679688 131.0546875 c 0
 741.810546875 136.973632812 738.153320312 145.153320312 738.153320312 154.170898438 c 0
 738.153320312 163.189453125 741.810546875 171.359375 747.721679688 177.278320312 c 2
 747.721679688 177.278320312 800.618164062 229.75 800.618164062 320.833007812 c 0
 800.618164062 411.916992188 747.721679688 464.387695312 747.721679688 464.387695312 c 2
 741.810546875 470.307617188 738.153320312 478.487304688 738.153320312 487.504882812 c 0
 738.153320312 496.522460938 741.810546875 504.692382812 747.721679688 510.612304688 c 0
EndSplineSet
EndChar

StartChar: uni0018
Encoding: 24 24 22
Width: 1000
Flags: H
LayerCount: 2
Fore
SplineSet
661.702148438 521.272460938 m 2
 486.979492188 404.817382812 l 2
 474.758789062 396.668945312 460.408203125 392.282226562 445.719726562 392.28515625 c 2
 333.333007812 392.28515625 l 2
 327.998046875 392.28515625 324.381835938 388.66796875 324.381835938 383.333007812 c 2
 324.381835938 216.75 l 2
 324.381835938 216.724609375 324.381835938 216.690429688 324.381835938 216.666992188 c 0
 324.4140625 211.37109375 328.022460938 207.71484375 333.333007812 207.71484375 c 2
 445.719726562 207.71484375 l 2
 460.408203125 207.717773438 474.758789062 203.412109375 486.979492188 195.263671875 c 2
 661.702148438 78.80859375 l 2
 669.172851562 73.82421875 675.620117188 77.2333984375 675.618164062 86.2138671875 c 2
 675.618164062 513.786132812 l 2
 675.637695312 522.783203125 669.186523438 526.266601562 661.702148438 521.272460938 c 2
663.737304688 587.59765625 m 0
 703.012695312 588.165039062 741.08984375 556.983398438 741.047851562 513.786132812 c 2
 741.047851562 513.704101562 l 1
 741.047851562 86.2958984375 l 2
 741.056640625 28.69921875 673.318359375 -7.6005859375 625.407226562 24.365234375 c 2
 450.68359375 140.8203125 l 2
 449.208984375 141.803710938 447.4921875 142.3671875 445.719726562 142.366210938 c 2
 333.333007812 142.366210938 l 2
 292.671875 142.366210938 258.99609375 176.013671875 258.952148438 216.666992188 c 2
 258.952148438 216.748046875 l 1
 258.952148438 383.333007812 l 2
 258.952148438 424.022460938 292.64453125 457.71484375 333.333007812 457.71484375 c 2
 445.719726562 457.71484375 l 2
 447.4921875 457.71484375 449.208984375 458.196289062 450.68359375 459.1796875 c 2
 625.407226562 575.715820312 l 2
 637.397460938 583.715820312 650.63671875 587.408203125 663.737304688 587.59765625 c 0
EndSplineSet
EndChar

StartChar: uni0019
Encoding: 25 25 23
Width: 1000
Flags: H
LayerCount: 2
Fore
SplineSet
495.036132812 521.272460938 m 2
 320.3125 404.817382812 l 2
 308.091796875 396.668945312 293.741210938 392.282226562 279.052734375 392.28515625 c 2
 166.666992188 392.28515625 l 2
 161.33203125 392.28515625 157.71484375 388.66796875 157.71484375 383.333007812 c 2
 157.71484375 216.666992188 l 2
 157.71484375 211.33203125 161.33203125 207.71484375 166.666992188 207.71484375 c 2
 279.052734375 207.71484375 l 2
 293.706054688 207.724609375 308.024414062 203.37109375 320.231445312 195.263671875 c 1
 320.3125 195.263671875 l 1
 495.036132812 78.80859375 l 2
 502.506835938 73.82421875 508.953125 77.2333984375 508.952148438 86.2138671875 c 2
 508.952148438 513.786132812 l 2
 508.970703125 522.783203125 502.520507812 526.266601562 495.036132812 521.272460938 c 2
497.0703125 587.59765625 m 0
 536.345703125 588.165039062 574.422851562 556.983398438 574.381835938 513.786132812 c 2
 574.381835938 513.704101562 l 1
 574.381835938 86.2958984375 l 2
 574.389648438 28.69921875 506.651367188 -7.6005859375 458.740234375 24.365234375 c 2
 284.016601562 140.8203125 l 2
 282.555664062 141.771484375 280.87890625 142.288085938 279.133789062 142.28515625 c 2
 279.052734375 142.28515625 l 1
 166.666992188 142.28515625 l 2
 125.977539062 142.28515625 92.28515625 175.977539062 92.28515625 216.666992188 c 2
 92.28515625 383.333007812 l 2
 92.28515625 424.022460938 125.977539062 457.71484375 166.666992188 457.71484375 c 2
 279.052734375 457.71484375 l 2
 280.825195312 457.71484375 282.541992188 458.196289062 284.016601562 459.1796875 c 2
 458.740234375 575.715820312 l 2
 470.73046875 583.715820312 483.969726562 587.408203125 497.0703125 587.59765625 c 0
685.221679688 406.4453125 m 0
 691.140625 412.356445312 699.3203125 416.013671875 708.337890625 416.013671875 c 0
 717.35546875 416.013671875 725.526367188 412.356445312 731.4453125 406.4453125 c 2
 791.666992188 346.223632812 l 1
 851.887695312 406.4453125 l 2
 857.807617188 412.356445312 865.987304688 416.013671875 875.004882812 416.013671875 c 0
 884.022460938 416.013671875 892.192382812 412.356445312 898.112304688 406.4453125 c 0
 904.022460938 400.526367188 907.6796875 392.346679688 907.6796875 383.329101562 c 0
 907.6796875 374.310546875 904.022460938 366.140625 898.112304688 360.221679688 c 2
 837.890625 300 l 1
 898.112304688 239.778320312 l 2
 904.022460938 233.859375 907.6796875 225.6796875 907.6796875 216.662109375 c 0
 907.6796875 207.64453125 904.022460938 199.473632812 898.112304688 193.5546875 c 0
 892.192382812 187.643554688 884.012695312 183.986328125 874.995117188 183.986328125 c 0
 865.977539062 183.986328125 857.807617188 187.643554688 851.887695312 193.5546875 c 2
 791.666992188 253.776367188 l 1
 731.4453125 193.5546875 l 2
 725.526367188 187.643554688 717.346679688 183.986328125 708.329101562 183.986328125 c 0
 699.310546875 183.986328125 691.140625 187.643554688 685.221679688 193.5546875 c 0
 679.310546875 199.473632812 675.653320312 207.653320312 675.653320312 216.670898438 c 0
 675.653320312 225.689453125 679.310546875 233.859375 685.221679688 239.778320312 c 2
 745.442382812 300 l 1
 685.221679688 360.221679688 l 2
 679.310546875 366.140625 675.653320312 374.3203125 675.653320312 383.337890625 c 0
 675.653320312 392.35546875 679.310546875 400.526367188 685.221679688 406.4453125 c 0
EndSplineSet
EndChar

StartChar: uni001A
Encoding: 26 26 24
Width: 1000
Flags: H
LayerCount: 2
Fore
SplineSet
208.327148438 291.047851562 m 0
 226.391601562 291.047851562 241.047851562 276.392578125 241.047851562 258.33984375 c 2
 241.047851562 -0.6181640625 l 1
 758.952148438 -0.6181640625 l 1
 758.952148438 258.333007812 l 2
 758.952148438 276.391601562 773.607421875 291.047851562 791.66015625 291.047851562 c 0
 809.725585938 291.047851562 824.381835938 276.392578125 824.381835938 258.33984375 c 2
 824.381835938 -8.349609375 l 2
 824.381835938 -39.833984375 798.166992188 -66.0478515625 766.682617188 -66.0478515625 c 2
 233.317382812 -66.0478515625 l 2
 201.833007812 -66.0478515625 175.618164062 -39.833984375 175.618164062 -8.349609375 c 2
 175.618164062 258.333007812 l 2
 175.618164062 276.391601562 190.274414062 291.047851562 208.327148438 291.047851562 c 0
482.91015625 661.247070312 m 2
 487.876953125 664.290039062 493.788085938 666.044921875 500.03515625 666.044921875 c 0
 506.282226562 666.044921875 512.123046875 664.290039062 517.08984375 661.247070312 c 2
 517.08984375 661.247070312 892.034179688 432.06640625 892.08984375 432.080078125 c 0
 901.4921875 426.33203125 907.716796875 415.956054688 907.716796875 404.138671875 c 0
 907.716796875 397.888671875 905.959960938 392.045898438 902.913085938 387.077148438 c 0
 897.165039062 377.674804688 886.7890625 371.450195312 874.971679688 371.450195312 c 0
 868.721679688 371.450195312 862.87890625 373.20703125 857.91015625 376.252929688 c 2
 500 595.002929688 l 1
 142.08984375 376.252929688 l 2
 137.12109375 373.20703125 131.263671875 371.39453125 125.013671875 371.39453125 c 0
 113.196289062 371.39453125 102.834960938 377.674804688 97.0869140625 387.077148438 c 0
 94.0400390625 392.045898438 92.2275390625 397.90234375 92.2275390625 404.153320312 c 0
 92.2275390625 415.969726562 98.5078125 426.33203125 107.91015625 432.080078125 c 2
 482.91015625 661.247070312 l 2
EndSplineSet
EndChar

StartChar: uni001B
Encoding: 27 27 25
Width: 1000
Flags: H
LayerCount: 2
Fore
SplineSet
541.66015625 124.381835938 m 2
 833.333007812 124.381835938 l 2
 851.391601562 124.381835938 866.047851562 109.725585938 866.047851562 91.6728515625 c 0
 866.047851562 73.6083984375 851.392578125 58.9521484375 833.33984375 58.9521484375 c 2
 541.666992188 58.9521484375 l 2
 523.608398438 58.9521484375 508.952148438 73.607421875 508.952148438 91.66015625 c 0
 508.952148438 109.725585938 523.607421875 124.381835938 541.66015625 124.381835938 c 2
208.333007812 541.047851562 m 0
 217.35546875 541.047851562 225.53125 537.37109375 231.4453125 531.4453125 c 2
 439.778320312 323.112304688 l 2
 445.688476562 317.192382812 449.345703125 309.012695312 449.345703125 299.995117188 c 0
 449.345703125 290.977539062 445.688476562 282.807617188 439.778320312 276.887695312 c 2
 231.4453125 68.5546875 l 2
 225.526367188 62.6435546875 217.346679688 58.986328125 208.329101562 58.986328125 c 0
 199.310546875 58.986328125 191.140625 62.6435546875 185.221679688 68.5546875 c 0
 179.310546875 74.4736328125 175.653320312 82.6533203125 175.653320312 91.6708984375 c 0
 175.653320312 100.689453125 179.310546875 108.859375 185.221679688 114.778320312 c 2
 370.442382812 300 l 1
 185.221679688 485.221679688 l 2
 179.310546875 491.140625 175.653320312 499.3203125 175.653320312 508.337890625 c 0
 175.653320312 517.35546875 179.310546875 525.526367188 185.221679688 531.4453125 c 0
 191.134765625 537.37109375 199.311523438 541.047851562 208.333007812 541.047851562 c 0
EndSplineSet
EndChar

StartChar: uni001C
Encoding: 28 28 26
Width: 1000
Flags: H
LayerCount: 2
Fore
SplineSet
458.333007812 558.952148438 m 0
 337.939453125 558.952148438 241.047851562 462.060546875 241.047851562 341.666992188 c 0
 241.047851562 221.272460938 337.939453125 124.381835938 458.333007812 124.381835938 c 0
 578.727539062 124.381835938 675.618164062 221.272460938 675.618164062 341.666992188 c 0
 675.618164062 462.060546875 578.727539062 558.952148438 458.333007812 558.952148438 c 0
458.333007812 624.381835938 m 0
 614.081054688 624.381835938 741.047851562 497.415039062 741.047851562 341.666992188 c 0
 741.047851562 275.745117188 714.802734375 217.62890625 676.7578125 169.465820312 c 1
 814.778320312 31.4453125 l 2
 820.689453125 25.5263671875 824.346679688 17.3466796875 824.346679688 8.3291015625 c 0
 824.346679688 -0.689453125 820.689453125 -8.859375 814.778320312 -14.7783203125 c 0
 808.859375 -20.689453125 800.6796875 -24.3466796875 791.662109375 -24.3466796875 c 0
 782.64453125 -24.3466796875 774.473632812 -20.689453125 768.5546875 -14.7783203125 c 2
 630.534179688 123.2421875 l 1
 582.37109375 85.197265625 524.254882812 58.9521484375 458.333007812 58.9521484375 c 0
 302.584960938 58.9521484375 175.618164062 185.918945312 175.618164062 341.666992188 c 0
 175.618164062 497.415039062 302.584960938 624.381835938 458.333007812 624.381835938 c 0
EndSplineSet
EndChar

StartChar: ampersand
Encoding: 38 38 27
Width: 1000
Flags: HW
LayerCount: 2
Fore
SplineSet
533 458 m 1
 842 458 l 1
 842 642 l 1
 158 642 l 1
 158 505 l 1
 498 505 l 2
 517 505 533 490 533 472 c 2
 533 458 l 1
533 209 m 1
 692 209 842 209 842 209 c 1
 842 391 l 1
 842 391 692 391 533 391 c 1
 533 378 l 2
 533 360 517 345 498 345 c 2
 158 345 l 1
 158 255 l 1
 498 255 l 2
 517 255 533 240 533 222 c 2
 533 209 l 1
533 142 m 1
 533 128 l 2
 533 110 517 95 498 95 c 2
 158 95 l 1
 158 -42 l 1
 842 -42 l 1
 842 142 l 1
 533 142 l 1
150 708 m 2
 850 708 l 2
 881 708 908 681 908 650 c 2
 908 -50 l 2
 908 -81 881 -108 850 -108 c 2
 150 -108 l 2
 119 -108 92 -81 92 -50 c 2
 92 650 l 2
 92 681 119 708 150 708 c 2
EndSplineSet
EndChar
